<?xml version="1.0" standalone="no"?>
<!DOCTYPE svg PUBLIC "-//W3C//DTD SVG 20010904//EN"
 "http://www.w3.org/TR/2001/REC-SVG-20010904/DTD/svg10.dtd">
<svg version="1.0" xmlns="http://www.w3.org/2000/svg"
 width="335.000000pt" height="150.000000pt" viewBox="0 0 335.000000 150.000000"
 preserveAspectRatio="xMidYMid meet">

<g transform="translate(0.000000,150.000000) scale(0.100000,-0.100000)"
fill="#000000" stroke="none">
<path d="M2256 1484 c-9 -8 -16 -22 -16 -29 0 -34 30 -45 126 -45 107 0 134 9
134 45 0 36 -27 45 -134 45 -73 0 -98 -4 -110 -16z"/>
<path d="M2256 1341 c-14 -16 -15 -23 -6 -40 10 -20 18 -21 128 -19 116 3 117
3 120 27 6 40 -21 51 -128 51 -83 0 -99 -3 -114 -19z"/>
<path d="M2 807 l3 -274 27 -40 c46 -70 60 -73 367 -73 l271 0 0 40 0 40 -184
0 -184 0 -26 31 -26 31 0 259 0 259 -125 0 -126 0 3 -273z"/>
<path d="M850 835 l0 -245 125 0 125 0 0 245 0 245 -125 0 -125 0 0 -245z"/>
<path d="M1270 750 l0 -330 125 0 125 0 0 290 0 290 98 0 c115 0 182 -17 223
-56 62 -59 23 -136 -96 -193 -99 -47 -99 -46 21 -218 l78 -113 123 0 123 0
-85 125 c-47 69 -85 131 -85 138 0 14 31 47 44 47 4 0 27 14 52 30 133 92 84
245 -97 301 -54 17 -94 19 -355 19 l-294 0 0 -330z"/>
<path d="M2760 1058 c-48 -33 -72 -70 -77 -121 -13 -109 40 -163 229 -237 71
-28 140 -58 154 -66 30 -20 40 -55 23 -86 -24 -45 -35 -47 -226 -48 l-183 0 0
-40 0 -40 271 0 c307 0 321 3 367 73 53 79 28 184 -55 239 -21 14 -93 46 -160
72 -67 26 -133 56 -147 67 -34 27 -35 71 -1 104 24 25 26 25 210 25 l185 0 0
40 0 40 -279 0 c-272 0 -279 0 -311 -22z"/>
<path d="M2250 665 l0 -245 125 0 125 0 0 245 0 245 -125 0 -125 0 0 -245z"/>
<path d="M857 213 c-14 -13 -6 -53 12 -63 11 -5 62 -10 114 -10 80 0 96 3 111
19 14 15 15 24 6 40 -10 19 -19 21 -124 21 -62 0 -116 -3 -119 -7z"/>
<path d="M868 79 c-24 -13 -23 -56 1 -69 11 -5 62 -10 115 -10 96 0 126 11
126 45 0 35 -29 45 -128 45 -53 0 -105 -5 -114 -11z"/>
</g>
</svg>
